<?xml version="1.0" encoding="UTF-8"?>
<svg width="82px" height="90px" viewBox="0 0 82 90" version="1.1" xmlns="http://www.w3.org/2000/svg" xmlns:xlink="http://www.w3.org/1999/xlink">
    <!-- Generator: Sketch 47.1 (45422) - http://www.bohemiancoding.com/sketch -->
    <title>noun_1145792_cc</title>
    <desc>Created with Sketch.</desc>
    <defs></defs>
    <g id="Page-1" stroke="none" stroke-width="1" fill="none" fill-rule="evenodd">
        <g id="noun_1145792_cc" transform="translate(0.000000, -1.000000)" fill="#000000">
            <g id="Group" transform="translate(0.000000, 0.637840)">
                <path d="M41,0.36214 C37.50171,0.36214 34.67119,2.16341 29.58573,5.09949 L11.83884,15.35002 C6.7534,18.28612 3.7787,19.83618 2.02956,22.86577 C0.28043,25.8954 0.4246,29.24187 0.4246,35.11405 L0.4246,55.6103 C0.4246,61.4825 0.28036,64.8338 2.02956,67.8634 C3.77872,70.893 6.75338,72.4382 11.83884,75.3743 L29.58573,85.6248 C34.67119,88.5609 37.50171,90.3622 41,90.3622 C44.49829,90.3622 47.32878,88.5609 52.41424,85.6248 L70.16114,75.3743 C75.2466,72.4382 78.22128,70.893 79.97041,67.8634 C81.71957,64.8338 81.5754,61.4825 81.5754,55.6103 L81.5754,35.11405 C81.5754,29.24185 81.71964,25.8954 79.97041,22.86577 C78.22128,19.83618 75.2466,18.2861 70.16114,15.35002 L52.41424,5.09949 C47.32878,2.16341 44.49829,0.36214 41,0.36214 Z M41,5.32739 C42.58717,5.32739 44.84616,6.46436 49.93162,9.40046 L67.67851,19.64613 L67.67851,19.65113 C70.69383,21.39204 72.57673,22.56315 73.84627,23.53509 L49.93162,37.33983 C44.84616,40.27593 42.58717,41.4129 41,41.4129 C39.41283,41.4129 37.15382,40.27593 32.06836,37.33983 L8.1537,23.53509 C9.42327,22.56176 11.30617,21.38718 14.32146,19.64629 L14.32146,19.65129 L32.06836,9.40078 C37.15382,6.46468 39.41283,5.32771 41,5.32771 L41,5.32739 Z M41,8.34339 C37.69446,8.34351 35.01667,9.8922 35.01648,11.80064 C35.01667,13.70908 37.69448,15.25777 41,15.25789 C44.30552,15.25777 46.98814,13.70908 46.98836,11.80064 C46.98817,10.90163 46.38102,10.03562 45.29608,9.39076 C44.16912,8.72077 42.6176,8.34348 41,8.34339 L41,8.34339 Z M61.0404,19.91282 C57.73488,19.91291 55.05707,21.46163 55.0569,23.37007 C55.05707,25.27854 57.73485,26.8272 61.0404,26.82732 C64.34591,26.8272 67.02372,25.27851 67.02392,23.37007 C67.02372,22.43613 66.37084,21.54296 65.21044,20.89229 C64.0935,20.26589 62.59755,19.91291 61.0404,19.91282 Z M20.95958,19.91782 C17.65404,19.91792 14.97141,21.46177 14.97122,23.37023 C14.97144,25.27868 17.65406,26.82739 20.95958,26.82749 C24.26512,26.82739 26.94291,25.2787 26.9431,23.37023 C26.9441,22.43602 26.28975,21.54369 25.12962,20.89245 C24.01164,20.26623 22.51723,19.91715 20.95958,19.91782 L20.95958,19.91782 Z M5.67108,27.83605 L29.58573,41.64079 C34.67119,44.5769 36.78309,45.9637 37.57668,47.3382 C38.37025,48.7128 38.51737,51.2366 38.51737,57.1087 L38.51737,84.7279 C37.04031,84.114 35.08326,83.0647 32.06836,81.324 L14.32146,71.0784 C9.236,68.1423 7.12411,66.7554 6.33051,65.3809 C5.53694,64.0064 5.38985,61.4826 5.38985,55.6104 L5.38985,35.11422 C5.38985,31.63539 5.46405,29.42039 5.67108,27.83605 Z M76.3289,27.83605 C76.53595,29.42037 76.61015,31.63539 76.61015,35.11422 L76.61015,55.6104 C76.61015,61.4826 76.46293,64.0064 75.66946,65.3809 C74.87587,66.7554 72.76397,68.1423 67.67851,71.0784 L49.93162,81.324 C46.91672,83.0647 44.95964,84.114 43.48263,84.7279 L43.48263,57.1087 C43.48263,51.2366 43.6296,48.7128 44.42329,47.3382 C45.21689,45.9637 47.32878,44.5769 52.41424,41.64079 L76.3289,27.83605 L76.3289,27.83605 Z M41,31.48725 C37.69446,31.48737 35.01183,33.0312 35.01164,34.93964 C35.01183,36.84808 37.69446,38.39677 41,38.39689 C44.30554,38.39677 46.9833,36.84811 46.9835,34.93964 C46.9845,34.04036 46.38072,33.18008 45.29608,32.53462 C44.16808,31.86481 42.6181,31.48658 41,31.48725 Z M10.34539,33.55771 C9.82588,33.50111 9.34852,33.58621 8.94407,33.81955 C7.29141,34.77395 7.29141,37.86648 8.94407,40.72922 C10.59695,43.5918 13.27469,45.1405 14.92757,44.1865 C16.58023,43.2321 16.58023,40.13955 14.92757,37.27681 C14.1489,35.92834 13.09981,34.80826 11.99884,34.15414 C11.42699,33.81431 10.8649,33.61434 10.34539,33.55771 L10.34539,33.55771 Z M30.32762,45.1223 C29.8298,45.0783 29.36895,45.1643 28.97963,45.389 C27.32697,46.3434 27.32697,49.4359 28.97963,52.2986 C30.63248,55.1613 33.31513,56.71 34.96799,55.7559 C36.62065,54.8015 36.62065,51.709 34.96799,48.8463 C34.1591,47.4454 33.05689,46.2918 31.9132,45.6508 C31.36272,45.3422 30.82541,45.1667 30.32762,45.1223 Z M20.36318,50.9119 C19.84364,50.8549 19.36628,50.9409 18.96184,51.1737 C17.30918,52.1281 17.30918,55.2206 18.96184,58.0834 C20.61469,60.946 23.2925,62.4947 24.94536,61.5406 C26.59804,60.5862 26.59804,57.4937 24.94536,54.631 C24.16671,53.2825 23.11758,52.1624 22.01663,51.5083 C21.44478,51.1685 20.88269,50.9685 20.36318,50.9119 L20.36318,50.9119 Z M61.63682,50.9119 C61.11731,50.9689 60.55519,51.1685 59.98334,51.5083 C58.8824,52.1624 57.83327,53.2825 57.05462,54.631 C55.40193,57.4937 55.40193,60.5862 57.05462,61.5406 C58.70747,62.4947 61.38528,60.9508 63.03814,58.0882 C64.6908,55.2255 64.6908,52.1281 63.03814,51.1737 C62.63369,50.9404 62.15634,50.8553 61.63682,50.9119 Z M10.2872,56.6917 C9.78941,56.6477 9.3332,56.7377 8.94407,56.9633 C7.29141,57.9177 7.29141,61.0102 8.94407,63.8729 C10.59695,66.7355 13.27469,68.2842 14.92757,67.3302 C16.58023,66.3758 16.58023,63.2784 14.92757,60.4157 C14.11908,59.014 13.01682,57.8622 11.87278,57.2203 C11.32213,56.912 10.78501,56.7357 10.2872,56.6917 Z M30.38094,68.266 C29.86143,68.21 29.38385,68.299 28.97963,68.5327 C27.32694,69.4871 27.32694,72.5796 28.97963,75.4424 C30.63248,78.305 33.31513,79.8537 34.96799,78.8996 C36.62067,77.9452 36.62067,74.8527 34.96799,71.9899 C34.18974,70.6407 33.13571,69.5175 32.03442,68.8624 C31.46238,68.5229 30.90046,68.3221 30.38094,68.266 L30.38094,68.266 Z" id="Shape"></path>
            </g>
        </g>
    </g>
</svg>