<?xml version="1.0" encoding="UTF-8"?>
<svg width="60px" height="90px" viewBox="0 0 60 90" version="1.1" xmlns="http://www.w3.org/2000/svg" xmlns:xlink="http://www.w3.org/1999/xlink">
    <!-- Generator: Sketch 47.1 (45422) - http://www.bohemiancoding.com/sketch -->
    <title>noun_1122888_cc</title>
    <desc>Created with Sketch.</desc>
    <defs></defs>
    <g id="Page-1" stroke="none" stroke-width="1" fill="none" fill-rule="evenodd">
        <g id="noun_1122888_cc" fill-rule="nonzero" fill="#000000">
            <g id="Group">
                <path d="M39.4,9.5 C38,10.2 36.8,11.4 36.3,12.9 L34.8,17.5 L31.8,13 L28.4,15.8 C16,26.1 10.4,43.2 13.9,60 L3.7,74.9 L10.3,79.4 L20.5,64.6 C40.6,61.3 55.8,45.1 57.7,24.7 L59.9,0 L39.4,9.5 Z M49.7,24 C48.4,37.8 39.7,49.2 27.5,54.4 L36.3,41.5 L29.7,37 L20.8,50 C20.8,40.6 24.2,31.7 30.2,25.2 L37.2,35.6 L43.5,16.5 L50.6,13.2 L49.7,24 Z" id="Shape"></path>
                <rect id="Rectangle-path" x="0.7" y="81.4" width="54" height="8"></rect>
            </g>
        </g>
    </g>
</svg>