<?xml version="1.0" encoding="UTF-8"?>
<svg width="68px" height="47px" viewBox="0 0 68 47" version="1.1" xmlns="http://www.w3.org/2000/svg" xmlns:xlink="http://www.w3.org/1999/xlink">
    <!-- Generator: Sketch 47.1 (45422) - http://www.bohemiancoding.com/sketch -->
    <title>Group</title>
    <desc>Created with Sketch.</desc>
    <defs></defs>
    <g id="Page-1" stroke="none" stroke-width="1" fill="none" fill-rule="evenodd">
        <g id="noun_120619_cc" fill-rule="nonzero" fill="#000000">
            <g id="Group">
                <path d="M15.062,37.125 C13.958,37.125 13.062,36.229 13.062,35.125 L13.062,32 C13.062,24.28 19.342,18 27.062,18 L41.062,18 C48.782,18 55.062,24.28 55.062,32 L55.062,35 C55.062,36.104 54.166,37 53.062,37 C51.958,37 51.062,36.104 51.062,35 L51.062,32 C51.062,26.486 46.576,22 41.062,22 L27.062,22 C21.548,22 17.062,26.486 17.062,32 L17.062,35.125 C17.062,36.229 16.166,37.125 15.062,37.125 Z" id="Shape"></path>
                <path d="M54.884,46.75 L13.116,46.75 C12.012,46.75 11.116,45.854 11.116,44.75 L11.116,35.25 C11.116,34.146 12.012,33.25 13.116,33.25 C14.22,33.25 15.116,34.146 15.116,35.25 L15.116,42.75 L52.884,42.75 L52.884,35.25 C52.884,34.146 53.78,33.25 54.884,33.25 C55.988,33.25 56.884,34.146 56.884,35.25 L56.884,44.75 C56.884,45.854 55.988,46.75 54.884,46.75 Z" id="Shape"></path>
                <path d="M13.428,32.906 C13.168,32.906 12.904,32.855 12.65,32.747 C5.169,29.582 0.334,22.289 0.334,14.167 C0.334,9.168 2.176,4.373 5.522,0.665 C6.126,-0.005 7.103,-0.187 7.909,0.219 C8.714,0.626 9.147,1.522 8.966,2.406 C8.162,6.328 8.84,10.389 10.872,13.842 C12.739,17.017 15.537,19.395 18.962,20.719 C19.992,21.117 20.504,22.276 20.106,23.305 C19.708,24.336 18.549,24.848 17.52,24.449 C13.245,22.796 9.754,19.829 7.425,15.87 C6.257,13.886 5.448,11.74 5.013,9.525 C4.567,11.017 4.335,12.579 4.335,14.167 C4.335,20.679 8.211,26.526 14.21,29.063 C15.227,29.493 15.703,30.667 15.272,31.684 C14.948,32.447 14.207,32.906 13.428,32.906 Z" id="Shape"></path>
                <path d="M54.146,32.906 C53.367,32.906 52.626,32.448 52.303,31.685 C51.872,30.667 52.348,29.494 53.365,29.064 C59.364,26.526 63.24,20.679 63.24,14.168 C63.24,12.58 63.008,11.019 62.562,9.526 C62.127,11.741 61.318,13.887 60.15,15.872 C57.821,19.83 54.33,22.797 50.055,24.451 C49.026,24.85 47.867,24.338 47.469,23.307 C47.071,22.277 47.583,21.119 48.613,20.721 C52.038,19.396 54.836,17.018 56.703,13.844 C58.735,10.391 59.412,6.329 58.609,2.407 C58.428,1.523 58.861,0.628 59.666,0.22 C60.473,-0.186 61.45,-0.005 62.053,0.666 C65.398,4.374 67.241,9.169 67.241,14.168 C67.241,22.291 62.407,29.584 54.925,32.748 C54.67,32.855 54.406,32.906 54.146,32.906 Z" id="Shape"></path>
            </g>
        </g>
    </g>
</svg>